# xmcd
#
# Track frame offsets: 
#        150
#        20605
#        49325
#        51578
#        73878
#        95265
#        123368
#        139520
#        141013
#        165655
#        199293
#
# Disc length: 3014 seconds
#
# Revision: 2
# Processed by: cddbd v1.5.1PL0 Copyright (c) Steve Scherf et al.
# Submitted via: ExactAudioCopy v0.95a4
#
DISCID=a50bc40b
DTITLE=Lightnin' Hopkins - It's A Sin To Be Rich
DYEAR=1992
DGENRE=Blues
TTITLE0=Roberta
TTITLE1=Katie Mae
TTITLE2=Howlin' Wolf (Lightnin' Hopkins - Rap)
TTITLE3=The Rehearsal (For It's A Sin To Be Rich)
TTITLE4=It's A Sin To Be Rich, It's A Low-Down Shame To Be poorP
TTITLE5=Y'All Escuse Me
TTITLE6=Just Out Of Louisiana
TTITLE7=Get Out Your Pencil (Lightnin' Hopkins - Rap)
TTITLE8=I forgot To Pull My Shoes Off
TTITLE9=Turn Me On
TTITLE10=Candy Kitchen
EXTD=
EXTT0=
EXTT1=
EXTT2=
EXTT3=
EXTT4=
EXTT5=
EXTT6=
EXTT7=
EXTT8=
EXTT9=
EXTT10=
PLAYORDER=
